<svg width="128" height="128" viewBox="0 0 128 128" fill="none" xmlns="http://www.w3.org/2000/svg">
<path d="M116.5 32.2999C115.9 31.1999 115.1 30.2 114.2 29.7L66.1 1.89995C65.3 1.39995 64.2 1.19995 63 1.19995C61.8 1.19995 60.7 1.49995 59.9 1.89995L11.4 29.7C9.7 30.7 8 33.1999 8 35.0999V90.8C8 91.9 8.7 93.1 9.4 94.2L9.5 94.3C10 95.1 10.8 95.8 11.5 96.2L59.8 124.1C60.6 124.6 61.8 124.8 63 124.8C64.2 124.8 65.3 124.5 66.1 124.1L113.6 96.2C115.3 95.2 116 92.7 116 90.8V35.0999C116 34.2999 116.4 33.3 116 32.5L116.5 32.2999ZM112.3 34.4C112.3 34.7 112 34.8999 112 35.0999V90.8C112 91.6 111.8 92.5 111.6 92.8L64 120.6C63.9 120.7 63.5 120.8 62.9 120.8C62.3 120.8 61.9 120.7 61.8 120.6L13.6 92.8C13.6 92.8 13.5 92.7 13.4 92.7L12.8 92.1C12.4 91.4 13 91 12 90.9V35.2C13 34.7 12.9 33.4999 13.4 33.2999L61.7 5.39995C61.8 5.39995 62.3 5.19995 62.9 5.19995C63.5 5.19995 63.9 5.29995 64 5.39995L112 33.0999L112.4 34C112.5 34.1 112.3 34.3 112.3 34.4ZM63 38.5C72.1 38.5 80.1 43.5 84.3 51L97.3 43.5C90.5 31.6 77.7 23.5 63 23.5C41.2 23.5 23.5 41.2 23.5 63C23.5 84.7999 41.2 102.5 63 102.5C77.6 102.5 90.4 94.5 97.2 82.7L84.3 75.1C80.1 82.5 72.1 87.5 63 87.5C49.5 87.5 38.5 76.5 38.5 63C38.5 49.5 49.5 38.5 63 38.5Z" fill="#FABD00"/>
</svg>
