<svg width="128" height="128" viewBox="0 0 128 128" fill="none" xmlns="http://www.w3.org/2000/svg">
<path fill-rule="evenodd" clip-rule="evenodd" d="M82.108 78.432C82.587 77.2 83.13 75.987 83.535 74.731C85.823 67.634 88.089 60.531 90.34 53.422C91.205 50.691 92.153 48.002 93.855 45.655C96.547 41.946 100.297 40.003 104.735 39.324C106.483 39.0643 108.248 38.9286 110.015 38.918C115.282 38.868 120.551 38.903 125.819 38.908C126.099 38.908 126.379 38.937 126.776 38.96C126.647 39.264 126.577 39.485 126.465 39.684C124.51 43.178 122.593 46.693 120.58 50.152C117.075 56.174 113.564 62.194 109.949 68.15C107.63 71.969 105.115 75.67 102.262 79.124C100.157 81.672 97.941 84.108 95.116 85.894C93.191 87.111 91.135 87.823 88.801 87.811C80.523 87.766 72.245 87.799 63.967 87.787C61.506 87.783 59.399 86.846 57.611 85.184C55.048 82.803 53.518 79.772 52.266 76.576C49.982 70.741 48.703 64.625 47.235 58.562C46.547 55.724 45.765 52.908 45.02 50.084C44.972 49.901 44.878 49.73 44.77 49.467L44.193 50.009C40.965 53.216 38.122 56.75 35.578 60.507C34.885 61.531 34.652 62.881 34.265 64.098C32.841 68.568 31.543 73.081 30.001 77.509C28.524 81.751 25.876 85.125 21.737 87.119C19.337 88.2825 16.7145 88.9152 14.048 88.974C10.068 89.062 6.08596 89.072 2.10496 89.108C1.15296 89.117 1.10896 89.039 1.35696 88.118C3.06396 81.78 5.22696 75.604 7.93696 69.626C10.731 63.459 14.022 57.578 18.168 52.207C20.991 48.55 24.109 45.176 28.011 42.625C29.99 41.332 32.094 40.31 34.488 40.041C34.882 39.996 35.281 39.968 35.677 39.968C44.155 39.964 52.633 40.05 61.11 39.929C65.657 39.864 68.949 41.784 71.414 45.444C72.947 47.72 74.044 50.205 74.967 52.772C76.828 57.95 77.985 63.319 79.292 68.65C80.04 71.701 80.873 74.731 81.671 77.77C81.731 77.998 81.828 78.216 81.909 78.438L82.108 78.432Z" fill="#FABD00"/>
</svg>
