<svg width="131" height="128" viewBox="0 0 131 128" fill="none" xmlns="http://www.w3.org/2000/svg">
<g filter="url(#filter0_d_26_2)">
<path d="M65.094 33C31.354 33 4 46.862 4 63.961C4 81.06 31.354 94.922 65.094 94.922C98.834 94.922 126.188 81.06 126.188 63.961C126.188 46.862 98.834 33 65.094 33ZM49.197 69.993C47.739 71.357 46.12 71.92 44.337 72.5C42.554 73.081 40.285 72.961 37.526 72.961H31.273L29.54 82.961H22.239L28.754 48.961H42.794C47.018 48.961 50.099 50.176 52.036 52.393C53.973 54.61 54.555 57.757 53.783 61.73C53.464 63.367 52.927 64.889 52.169 66.245C51.3835 67.6441 50.3803 68.9093 49.197 69.993ZM70.508 72.961L73.389 58.541C73.717 56.853 73.597 55.599 73.028 54.986C72.458 54.372 71.246 53.961 69.393 53.961H63.603L59.872 72.961H52.628L59.143 39.961H66.387L64.655 48.961H71.108C75.169 48.961 77.969 49.776 79.51 51.192C81.051 52.608 81.513 54.548 80.897 57.72L77.866 72.961H70.508ZM110.767 61.783C110.449 63.42 109.911 64.916 109.154 66.271C108.396 67.628 107.406 68.869 106.183 69.993C104.725 71.357 103.105 71.92 101.323 72.5C99.541 73.081 97.27 72.961 94.511 72.961H88.258L86.526 82.961H79.225L85.739 48.961H99.78C104.004 48.961 107.085 50.176 109.021 52.393C110.956 54.61 111.539 57.811 110.767 61.783ZM97.013 53.961H92.012L89.285 67.961H93.727C96.669 67.961 98.863 67.671 100.303 66.561C101.745 65.453 102.716 63.733 103.221 61.14C103.705 58.649 103.485 56.706 102.561 55.682C101.636 54.658 99.787 53.961 97.013 53.961ZM40.028 53.961H35.026L32.299 67.961H36.74C39.683 67.961 41.876 67.671 43.317 66.561C44.758 65.453 45.73 63.733 46.234 61.14C46.718 58.649 46.498 56.706 45.574 55.682C44.65 54.658 42.802 53.961 40.028 53.961Z" fill="#FABD00"/>
</g>
<defs>
<filter id="filter0_d_26_2" x="-3" y="0" width="136" height="136" filterUnits="userSpaceOnUse" color-interpolation-filters="sRGB">
<feFlood flood-opacity="0" result="BackgroundImageFix"/>
<feColorMatrix in="SourceAlpha" type="matrix" values="0 0 0 0 0 0 0 0 0 0 0 0 0 0 0 0 0 0 127 0" result="hardAlpha"/>
<feOffset dy="4"/>
<feGaussianBlur stdDeviation="2"/>
<feComposite in2="hardAlpha" operator="out"/>
<feColorMatrix type="matrix" values="0 0 0 0 0 0 0 0 0 0 0 0 0 0 0 0 0 0 0.25 0"/>
<feBlend mode="normal" in2="BackgroundImageFix" result="effect1_dropShadow_26_2"/>
<feBlend mode="normal" in="SourceGraphic" in2="effect1_dropShadow_26_2" result="shape"/>
</filter>
</defs>
</svg>
