<svg width="128" height="128" viewBox="0 0 128 128" fill="none" xmlns="http://www.w3.org/2000/svg">
<path d="M40 68V57.921C40 50.948 46.218 45 53.383 45H74.485C80.359 45 84 39.96 84 34.062V13.945C84 8.21902 79.694 3.91903 73.96 2.96403C70.4103 2.36938 66.8161 2.08099 63.217 2.10203C59.606 2.11903 55.878 2.42603 52.843 2.96403C43.902 4.54203 42 7.84802 42 13.945V22H63V25H34.891C28.751 25 23.375 28.53 21.693 35.552C19.754 43.599 19.668 48.754 21.693 57.157C23.195 63.411 26.782 68 32.921 68H40ZM52.054 16.628C49.864 16.628 48.09 14.833 48.09 12.615C48.09 10.386 49.863 8.57603 52.054 8.57603C54.236 8.57603 56.018 10.387 56.018 12.615C56.018 14.833 54.236 16.628 52.054 16.628ZM106.175 35.552C104.658 29.438 101.759 25 95.612 25H87V34.062C87 41.335 81.516 48 74.485 48H53.383C47.603 48 42 52.403 42 58.193V78.31C42 84.035 47.388 87.403 52.974 89.044C59.66 91.011 65.755 91.366 73.756 89.044C79.074 87.504 84 84.406 84 78.31V71H63V68H95.611C101.751 68 104.039 63.584 106.174 57.157C108.38 50.539 108.286 44.042 106.175 35.552ZM75.814 75.625C78.004 75.625 79.779 77.42 79.779 79.64C79.779 81.867 78.005 83.677 75.814 83.677C73.632 83.677 71.851 81.866 71.851 79.64C71.851 77.42 73.632 75.625 75.814 75.625ZM34.911 112.049C34.911 108.292 33.839 106.363 31.697 106.258C30.8457 106.217 29.9954 106.356 29.202 106.667C28.556 106.898 28.12 107.128 27.891 107.359V116.327C29.262 117.187 30.479 117.587 31.54 117.524C33.787 117.376 34.911 115.553 34.911 112.049ZM37.554 112.206C37.554 114.115 37.107 115.699 36.206 116.959C35.203 118.386 33.812 119.119 32.034 119.16C30.694 119.203 29.313 118.782 27.892 117.902V126.053L25.594 125.233V107.14C25.971 106.678 26.456 106.281 27.045 105.944C28.413 105.146 30.076 104.737 32.032 104.716L32.065 104.748C33.853 104.726 35.231 105.46 36.199 106.949C37.101 108.315 37.554 110.066 37.554 112.206ZM51.603 117.555C51.603 120.115 51.346 121.888 50.833 122.873C50.317 123.859 49.336 124.646 47.888 125.232C46.714 125.695 45.444 125.946 44.08 125.989L43.7 124.541C45.086 124.353 46.062 124.163 46.628 123.975C47.742 123.598 48.506 123.02 48.926 122.245C49.263 121.614 49.429 120.41 49.429 118.627V118.028C47.8784 118.736 46.1928 119.101 44.488 119.096C43.356 119.096 42.358 118.742 41.498 118.028C40.532 117.251 40.049 116.264 40.049 115.07V105.504L42.348 104.717V114.347C42.348 115.375 42.68 116.167 43.344 116.723C44.008 117.279 44.868 117.545 45.922 117.526C46.976 117.504 48.105 117.095 49.304 116.298V105.064H51.603V117.555ZM60.576 119.034C60.3242 119.055 60.0716 119.065 59.819 119.066C58.519 119.066 57.505 118.757 56.781 118.136C56.059 117.514 55.697 116.657 55.697 115.563V106.509H54.123V105.063H55.697V101.223L57.993 100.406V105.063H60.576V106.509H57.993V115.5C57.993 116.362 58.224 116.974 58.687 117.33C59.084 117.625 59.716 117.793 60.576 117.836V119.034ZM74.493 118.845H72.195V109.972C72.195 109.07 71.984 108.292 71.564 107.643C71.079 106.909 70.405 106.541 69.54 106.541C68.486 106.541 67.168 107.097 65.586 108.209V118.845H63.288V97.637L65.586 96.912V106.571C67.055 105.503 68.659 104.967 70.402 104.967C71.62 104.967 72.605 105.377 73.36 106.195C74.117 107.012 74.494 108.031 74.494 109.248V118.845H74.493ZM86.711 111.688C86.711 110.244 86.437 109.052 85.891 108.109C85.242 106.96 84.234 106.353 82.87 106.291C80.35 106.437 79.092 108.242 79.092 111.703C79.092 113.29 79.354 114.615 79.882 115.679C80.556 117.035 81.567 117.703 82.915 117.681C85.446 117.661 86.711 115.664 86.711 111.688ZM89.229 111.703C89.229 113.758 88.703 115.468 87.654 116.834C86.5 118.362 84.905 119.13 82.871 119.13C80.854 119.13 79.282 118.362 78.148 116.834C77.12 115.468 76.606 113.758 76.606 111.703C76.606 109.771 77.162 108.147 78.274 106.824C79.448 105.421 80.992 104.717 82.901 104.717C84.81 104.717 86.364 105.421 87.561 106.824C88.672 108.147 89.229 109.771 89.229 111.703ZM102.407 118.845H100.108V109.469C100.108 108.441 99.798 107.638 99.18 107.06C98.561 106.484 97.737 106.205 96.708 106.227C95.617 106.248 94.578 106.605 93.592 107.296V118.845H91.293V107.012C92.616 106.049 93.833 105.42 94.945 105.126C95.994 104.852 96.919 104.716 97.716 104.716C98.261 104.716 98.775 104.769 99.258 104.874C100.161 105.083 100.895 105.47 101.461 106.038C102.092 106.667 102.407 107.422 102.407 108.305V118.845Z" fill="#FABD00"/>
</svg>
